<svg width="182" height="32" viewBox="0 0 182 32" fill="none" xmlns="http://www.w3.org/2000/svg">
<path fill-rule="evenodd" clip-rule="evenodd" d="M6.66667 8.33325C4.64163 8.33325 3 9.97488 3 11.9999V23.9999C3 26.025 4.64163 27.6666 6.66667 27.6666H25.3333C27.3584 27.6666 29 26.025 29 23.9999V11.9999C29 9.97488 27.3584 8.33325 25.3333 8.33325H6.66667ZM22 16.3333C21.0796 16.3333 20.3333 17.0795 20.3333 17.9999C20.3333 18.9203 21.0796 19.6666 22 19.6666C22.9204 19.6666 23.6667 18.9203 23.6667 17.9999C23.6667 17.0795 22.9204 16.3333 22 16.3333Z" fill="white"/>
<path d="M21.9796 4.09149C23.6725 3.64005 25.3333 4.91604 25.3333 6.66812H12L21.9796 4.09149Z" fill="white"/>
<path d="M40.9943 23V12.0909H44.7159V14.1648H44.8295C45.0568 13.483 45.4451 12.9432 45.9943 12.5455C46.5436 12.1477 47.197 11.9489 47.9545 11.9489C48.7216 11.9489 49.3821 12.1525 49.9361 12.5597C50.4901 12.9621 50.8239 13.4972 50.9375 14.1648H51.0511C51.2358 13.4972 51.6288 12.9621 52.2301 12.5597C52.8314 12.1525 53.5369 11.9489 54.3466 11.9489C55.393 11.9489 56.2405 12.285 56.8892 12.9574C57.5426 13.6297 57.8693 14.5246 57.8693 15.642V23H53.9489V16.6364C53.9489 16.1581 53.8281 15.7841 53.5866 15.5142C53.3452 15.2396 53.0208 15.1023 52.6136 15.1023C52.2112 15.1023 51.8916 15.2396 51.6548 15.5142C51.4228 15.7841 51.3068 16.1581 51.3068 16.6364V23H47.5568V16.6364C47.5568 16.1581 47.4361 15.7841 47.1946 15.5142C46.9531 15.2396 46.6288 15.1023 46.2216 15.1023C45.9517 15.1023 45.7197 15.1638 45.5256 15.2869C45.3314 15.41 45.1799 15.5876 45.071 15.8196C44.9669 16.0469 44.9148 16.3191 44.9148 16.6364V23H40.9943ZM59.8029 23V12.0909H63.7234V23H59.8029ZM61.7631 10.9545C61.2328 10.9545 60.7783 10.7794 60.3995 10.429C60.0207 10.0786 59.8313 9.6572 59.8313 9.16477C59.8313 8.67235 60.0207 8.25095 60.3995 7.90057C60.7783 7.55019 61.2328 7.375 61.7631 7.375C62.2982 7.375 62.7527 7.55019 63.1268 7.90057C63.5056 8.25095 63.695 8.67235 63.695 9.16477C63.695 9.6572 63.5056 10.0786 63.1268 10.429C62.7527 10.7794 62.2982 10.9545 61.7631 10.9545ZM69.6413 16.8636V23H65.7209V12.0909H69.4425V14.1648H69.5561C69.7929 13.4735 70.2095 12.9313 70.8061 12.5384C71.4074 12.1454 72.1082 11.9489 72.9084 11.9489C73.6802 11.9489 74.3501 12.1264 74.9183 12.4815C75.4912 12.8319 75.9339 13.3149 76.2464 13.9304C76.5637 14.5459 76.7199 15.2491 76.7152 16.0398V23H72.7947V16.8636C72.7995 16.3239 72.6622 15.9001 72.3828 15.5923C72.1082 15.2846 71.7247 15.1307 71.2322 15.1307C70.9103 15.1307 70.6286 15.2017 70.3871 15.3438C70.1503 15.4811 69.968 15.6799 69.8402 15.9403C69.7124 16.196 69.6461 16.5038 69.6413 16.8636ZM82.571 16.8636V23H78.6506V8.45455H82.429V14.1648H82.5426C82.7888 13.4687 83.1984 12.9266 83.7713 12.5384C84.3442 12.1454 85.0331 11.9489 85.8381 11.9489C86.6098 11.9489 87.2798 12.1241 87.848 12.4744C88.4209 12.8248 88.8636 13.3078 89.1761 13.9233C89.4934 14.5388 89.6496 15.2443 89.6449 16.0398V23H85.7244V16.8636C85.7292 16.3239 85.5942 15.9001 85.3196 15.5923C85.0497 15.2846 84.6638 15.1307 84.1619 15.1307C83.8447 15.1307 83.5653 15.2017 83.3239 15.3438C83.0871 15.4811 82.9025 15.6799 82.7699 15.9403C82.642 16.196 82.5758 16.5038 82.571 16.8636ZM94.62 23.1705C93.924 23.1705 93.3085 23.0568 92.7734 22.8295C92.2431 22.5975 91.8265 22.2472 91.5234 21.7784C91.2204 21.3097 91.0689 20.7131 91.0689 19.9886C91.0689 19.392 91.1707 18.883 91.3743 18.4616C91.5779 18.0355 91.862 17.6875 92.2266 17.4176C92.5911 17.1477 93.0149 16.9418 93.4979 16.7997C93.9856 16.6577 94.5111 16.5653 95.0746 16.5227C95.6854 16.4754 96.1754 16.4186 96.5447 16.3523C96.9188 16.2812 97.1887 16.1842 97.3544 16.0611C97.5201 15.9332 97.603 15.7652 97.603 15.5568V15.5284C97.603 15.2443 97.4941 15.0265 97.2763 14.875C97.0585 14.7235 96.7791 14.6477 96.4382 14.6477C96.0642 14.6477 95.7588 14.7306 95.522 14.8963C95.29 15.0573 95.1503 15.3059 95.103 15.642H91.495C91.5424 14.9792 91.7531 14.3684 92.1271 13.8097C92.5059 13.2462 93.0575 12.7964 93.782 12.4602C94.5064 12.1193 95.4107 11.9489 96.495 11.9489C97.2763 11.9489 97.977 12.0412 98.5973 12.2259C99.2176 12.4058 99.7455 12.6591 100.181 12.9858C100.617 13.3078 100.948 13.6866 101.175 14.1222C101.407 14.553 101.523 15.0218 101.523 15.5284V23H97.8587V21.4659H97.7734C97.5556 21.8731 97.2905 22.2022 96.978 22.4531C96.6702 22.7041 96.3175 22.8864 95.9197 23C95.5268 23.1136 95.0935 23.1705 94.62 23.1705ZM95.8984 20.6989C96.1967 20.6989 96.4761 20.6373 96.7365 20.5142C97.0017 20.3911 97.2171 20.2135 97.3828 19.9815C97.5485 19.7495 97.6314 19.4678 97.6314 19.1364V18.2273C97.5272 18.2699 97.416 18.3101 97.2976 18.348C97.1839 18.3859 97.0608 18.4214 96.9283 18.4545C96.8004 18.4877 96.6631 18.5185 96.5163 18.5469C96.3743 18.5753 96.2251 18.6013 96.0689 18.625C95.7659 18.6723 95.5173 18.7505 95.3232 18.8594C95.1338 18.9635 94.9917 19.0938 94.897 19.25C94.8071 19.4015 94.7621 19.572 94.7621 19.7614C94.7621 20.0644 94.8686 20.2964 95.0817 20.4574C95.2947 20.6184 95.567 20.6989 95.8984 20.6989ZM108.652 23.1989C107.469 23.1989 106.455 22.9645 105.613 22.4957C104.77 22.0223 104.123 21.3641 103.674 20.5213C103.224 19.6738 102.999 18.6913 102.999 17.5739C102.999 16.4564 103.224 15.4763 103.674 14.6335C104.123 13.786 104.77 13.1278 105.613 12.6591C106.455 12.1856 107.469 11.9489 108.652 11.9489C109.722 11.9489 110.648 12.143 111.429 12.5312C112.215 12.9148 112.824 13.4593 113.255 14.1648C113.685 14.8655 113.903 15.6894 113.908 16.6364H110.272C110.22 16.0634 110.054 15.6278 109.775 15.3295C109.5 15.0265 109.145 14.875 108.709 14.875C108.368 14.875 108.07 14.9744 107.814 15.1733C107.559 15.3674 107.36 15.6634 107.218 16.0611C107.076 16.4541 107.005 16.9489 107.005 17.5455C107.005 18.142 107.076 18.6392 107.218 19.0369C107.36 19.4299 107.559 19.7259 107.814 19.9247C108.07 20.1188 108.368 20.2159 108.709 20.2159C108.998 20.2159 109.254 20.1496 109.476 20.017C109.699 19.8797 109.879 19.6809 110.016 19.4205C110.158 19.1553 110.243 18.8333 110.272 18.4545H113.908C113.894 19.4157 113.674 20.2538 113.248 20.9688C112.821 21.679 112.218 22.2282 111.436 22.6165C110.66 23.0047 109.732 23.1989 108.652 23.1989ZM118.565 23.1705C117.869 23.1705 117.254 23.0568 116.719 22.8295C116.188 22.5975 115.772 22.2472 115.469 21.7784C115.166 21.3097 115.014 20.7131 115.014 19.9886C115.014 19.392 115.116 18.883 115.32 18.4616C115.523 18.0355 115.807 17.6875 116.172 17.4176C116.536 17.1477 116.96 16.9418 117.443 16.7997C117.931 16.6577 118.456 16.5653 119.02 16.5227C119.631 16.4754 120.121 16.4186 120.49 16.3523C120.864 16.2812 121.134 16.1842 121.3 16.0611C121.465 15.9332 121.548 15.7652 121.548 15.5568V15.5284C121.548 15.2443 121.439 15.0265 121.222 14.875C121.004 14.7235 120.724 14.6477 120.384 14.6477C120.009 14.6477 119.704 14.7306 119.467 14.8963C119.235 15.0573 119.096 15.3059 119.048 15.642H115.44C115.488 14.9792 115.698 14.3684 116.072 13.8097C116.451 13.2462 117.003 12.7964 117.727 12.4602C118.452 12.1193 119.356 11.9489 120.44 11.9489C121.222 11.9489 121.922 12.0412 122.543 12.2259C123.163 12.4058 123.691 12.6591 124.126 12.9858C124.562 13.3078 124.893 13.6866 125.121 14.1222C125.353 14.553 125.469 15.0218 125.469 15.5284V23H121.804V21.4659H121.719C121.501 21.8731 121.236 22.2022 120.923 22.4531C120.616 22.7041 120.263 22.8864 119.865 23C119.472 23.1136 119.039 23.1705 118.565 23.1705ZM119.844 20.6989C120.142 20.6989 120.421 20.6373 120.682 20.5142C120.947 20.3911 121.162 20.2135 121.328 19.9815C121.494 19.7495 121.577 19.4678 121.577 19.1364V18.2273C121.473 18.2699 121.361 18.3101 121.243 18.348C121.129 18.3859 121.006 18.4214 120.874 18.4545C120.746 18.4877 120.608 18.5185 120.462 18.5469C120.32 18.5753 120.17 18.6013 120.014 18.625C119.711 18.6723 119.463 18.7505 119.268 18.8594C119.079 18.9635 118.937 19.0938 118.842 19.25C118.752 19.4015 118.707 19.572 118.707 19.7614C118.707 20.0644 118.814 20.2964 119.027 20.4574C119.24 20.6184 119.512 20.6989 119.844 20.6989ZM127.342 23V12.0909H131.149V14.1648H131.262C131.461 13.3977 131.776 12.8366 132.207 12.4815C132.643 12.1264 133.152 11.9489 133.734 11.9489C133.904 11.9489 134.073 11.9631 134.238 11.9915C134.409 12.0152 134.572 12.0507 134.728 12.098V15.4432C134.534 15.3769 134.295 15.3272 134.011 15.294C133.727 15.2609 133.483 15.2443 133.279 15.2443C132.896 15.2443 132.55 15.3319 132.243 15.5071C131.94 15.6776 131.7 15.919 131.525 16.2315C131.35 16.5393 131.262 16.9015 131.262 17.3182V23H127.342ZM142.969 12.0909V14.9318H135.781V12.0909H142.969ZM137.173 9.47727H141.094V19.4915C141.094 19.643 141.12 19.7708 141.172 19.875C141.224 19.9744 141.304 20.0502 141.413 20.1023C141.522 20.1496 141.662 20.1733 141.832 20.1733C141.951 20.1733 142.088 20.1591 142.244 20.1307C142.405 20.1023 142.524 20.0786 142.599 20.0597L143.168 22.8153C142.992 22.8674 142.741 22.9313 142.415 23.0071C142.093 23.0829 141.709 23.1326 141.264 23.1562C140.365 23.2036 139.609 23.1113 138.999 22.8793C138.388 22.6425 137.929 22.2708 137.621 21.7642C137.313 21.2576 137.164 20.6231 137.173 19.8608V9.47727ZM149.679 23.1989C148.514 23.1989 147.51 22.9763 146.667 22.5312C145.829 22.0814 145.183 21.4375 144.728 20.5994C144.279 19.7566 144.054 18.7481 144.054 17.5739C144.054 16.447 144.281 15.4621 144.735 14.6193C145.19 13.7765 145.832 13.1207 146.66 12.652C147.489 12.1832 148.467 11.9489 149.593 11.9489C150.417 11.9489 151.163 12.0767 151.831 12.3324C152.498 12.5881 153.069 12.9598 153.542 13.4474C154.016 13.9304 154.38 14.5175 154.636 15.2088C154.892 15.9001 155.02 16.679 155.02 17.5455V18.4545H145.275V16.2955H151.412C151.407 15.983 151.326 15.7083 151.17 15.4716C151.019 15.2301 150.813 15.0431 150.552 14.9105C150.297 14.7732 150.005 14.7045 149.679 14.7045C149.361 14.7045 149.07 14.7732 148.805 14.9105C148.54 15.0431 148.327 15.2277 148.166 15.4645C148.01 15.7012 147.927 15.9782 147.917 16.2955V18.625C147.917 18.9754 147.991 19.2879 148.137 19.5625C148.284 19.8371 148.495 20.0526 148.77 20.2088C149.044 20.3651 149.376 20.4432 149.764 20.4432C150.034 20.4432 150.28 20.4053 150.502 20.3295C150.73 20.2538 150.924 20.1449 151.085 20.0028C151.246 19.8561 151.364 19.6809 151.44 19.4773H155.02C154.896 20.2348 154.605 20.893 154.146 21.4517C153.687 22.0057 153.078 22.4366 152.321 22.7443C151.568 23.0473 150.687 23.1989 149.679 23.1989ZM156.619 23V12.0909H160.54V23H156.619ZM158.58 10.9545C158.049 10.9545 157.595 10.7794 157.216 10.429C156.837 10.0786 156.648 9.6572 156.648 9.16477C156.648 8.67235 156.837 8.25095 157.216 7.90057C157.595 7.55019 158.049 7.375 158.58 7.375C159.115 7.375 159.569 7.55019 159.943 7.90057C160.322 8.25095 160.511 8.67235 160.511 9.16477C160.511 9.6572 160.322 10.0786 159.943 10.429C159.569 10.7794 159.115 10.9545 158.58 10.9545ZM162.537 23V12.0909H166.344V14.1648H166.458C166.657 13.3977 166.971 12.8366 167.402 12.4815C167.838 12.1264 168.347 11.9489 168.929 11.9489C169.1 11.9489 169.268 11.9631 169.434 11.9915C169.604 12.0152 169.767 12.0507 169.924 12.098V15.4432C169.73 15.3769 169.49 15.3272 169.206 15.294C168.922 15.2609 168.678 15.2443 168.475 15.2443C168.091 15.2443 167.746 15.3319 167.438 15.5071C167.135 15.6776 166.896 15.919 166.721 16.2315C166.545 16.5393 166.458 16.9015 166.458 17.3182V23H162.537ZM173.741 23.1705C173.045 23.1705 172.43 23.0568 171.895 22.8295C171.364 22.5975 170.948 22.2472 170.645 21.7784C170.342 21.3097 170.19 20.7131 170.19 19.9886C170.19 19.392 170.292 18.883 170.495 18.4616C170.699 18.0355 170.983 17.6875 171.348 17.4176C171.712 17.1477 172.136 16.9418 172.619 16.7997C173.107 16.6577 173.632 16.5653 174.196 16.5227C174.806 16.4754 175.297 16.4186 175.666 16.3523C176.04 16.2812 176.31 16.1842 176.475 16.0611C176.641 15.9332 176.724 15.7652 176.724 15.5568V15.5284C176.724 15.2443 176.615 15.0265 176.397 14.875C176.18 14.7235 175.9 14.6477 175.559 14.6477C175.185 14.6477 174.88 14.7306 174.643 14.8963C174.411 15.0573 174.271 15.3059 174.224 15.642H170.616C170.663 14.9792 170.874 14.3684 171.248 13.8097C171.627 13.2462 172.179 12.7964 172.903 12.4602C173.627 12.1193 174.532 11.9489 175.616 11.9489C176.397 11.9489 177.098 12.0412 177.718 12.2259C178.339 12.4058 178.867 12.6591 179.302 12.9858C179.738 13.3078 180.069 13.6866 180.297 14.1222C180.529 14.553 180.645 15.0218 180.645 15.5284V23H176.98V21.4659H176.895C176.677 21.8731 176.412 22.2022 176.099 22.4531C175.791 22.7041 175.439 22.8864 175.041 23C174.648 23.1136 174.215 23.1705 173.741 23.1705ZM175.02 20.6989C175.318 20.6989 175.597 20.6373 175.858 20.5142C176.123 20.3911 176.338 20.2135 176.504 19.9815C176.67 19.7495 176.752 19.4678 176.752 19.1364V18.2273C176.648 18.2699 176.537 18.3101 176.419 18.348C176.305 18.3859 176.182 18.4214 176.049 18.4545C175.922 18.4877 175.784 18.5185 175.637 18.5469C175.495 18.5753 175.346 18.6013 175.19 18.625C174.887 18.6723 174.638 18.7505 174.444 18.8594C174.255 18.9635 174.113 19.0938 174.018 19.25C173.928 19.4015 173.883 19.572 173.883 19.7614C173.883 20.0644 173.99 20.2964 174.203 20.4574C174.416 20.6184 174.688 20.6989 175.02 20.6989Z" fill="white"/>
</svg>
