<svg width="32" height="32" viewBox="0 0 32 32" fill="none" xmlns="http://www.w3.org/2000/svg">
<path fill-rule="evenodd" clip-rule="evenodd" d="M6.66667 8.33325C4.64163 8.33325 3 9.97488 3 11.9999V23.9999C3 26.025 4.64163 27.6666 6.66667 27.6666H25.3333C27.3584 27.6666 29 26.025 29 23.9999V11.9999C29 9.97488 27.3584 8.33325 25.3333 8.33325H6.66667ZM22 16.3333C21.0796 16.3333 20.3333 17.0795 20.3333 17.9999C20.3333 18.9203 21.0796 19.6666 22 19.6666C22.9204 19.6666 23.6667 18.9203 23.6667 17.9999C23.6667 17.0795 22.9204 16.3333 22 16.3333Z" fill="#3669EE"/>
<path d="M21.9796 4.09149C23.6725 3.64005 25.3333 4.91604 25.3333 6.66812H12L21.9796 4.09149Z" fill="#3669EE"/>
</svg>
